<svg width="382" height="73" viewBox="0 0 382 73" fill="none" xmlns="http://www.w3.org/2000/svg">
<path d="M16.68 68.82C15.9173 68.82 15.3307 68.5267 14.92 67.94C14.568 67.412 14.392 66.7373 14.392 65.916C14.392 53.6547 14.1573 43.3 13.688 34.852C12.28 34.6173 11.2827 34.5 10.696 34.5C8.29067 34.5 6.56 34.7053 5.504 35.116C5.504 38.4013 5.768 43.3587 6.296 49.988C6.76533 57.028 7 62.0147 7 64.948C7 65.5347 6.824 66.092 6.472 66.62C6.12 67.0893 5.68 67.324 5.152 67.324C4.38933 67.324 3.68533 65.9747 3.04 63.276C2.10133 59.2867 1.33867 50.9267 0.752 38.196C0.341333 29.572 0.136 20.3027 0.136 10.388C0.0773336 8.56933 0.0480003 5.988 0.0480003 2.644C0.0480003 1.588 0.546667 1.06 1.544 1.06C2.13067 1.06 2.71733 1.20666 3.304 1.49999C3.94933 1.79333 4.41867 2.116 4.712 2.468C4.47733 4.34533 4.36 6.54533 4.36 9.068C4.36 11.532 4.47733 14.524 4.712 18.044C4.888 22.092 4.976 25.1427 4.976 27.196V28.78C4.91733 29.2493 4.888 29.8067 4.888 30.452C4.888 31.0387 4.94667 31.8013 5.064 32.74C5.416 32.74 6.00267 32.7107 6.824 32.652C7.64533 32.5933 8.46667 32.5053 9.288 32.388C11.224 32.212 12.6613 32.124 13.6 32.124C13.6 27.02 13.5413 22.2973 13.424 17.956L13.248 3.26V0.883997C14.0107 0.883997 14.6853 1.03066 15.272 1.324C15.8587 1.55866 16.2987 1.88133 16.592 2.292C17.12 2.93733 17.4427 4.052 17.56 5.636V7.66C17.56 12.7053 17.8533 22.356 18.44 36.612C18.968 49.5187 19.232 59.1987 19.232 65.652C19.232 66.4733 18.968 67.2067 18.44 67.852C17.9707 68.4973 17.384 68.82 16.68 68.82ZM47.7509 68.292C46.4015 68.292 45.4042 68.0867 44.7589 67.676C44.1135 67.2653 43.7909 66.5027 43.7909 65.388C43.7909 63.628 43.4975 60.636 42.9109 56.412L42.5589 54.564L33.8469 53.244C33.4949 54.5933 32.9962 57.3213 32.3509 61.428C31.9989 64.3027 31.4415 66.2093 30.6789 67.148C30.2682 67.676 29.6815 67.94 28.9189 67.94C28.2149 67.94 27.5695 67.7347 26.9829 67.324C26.3962 66.8547 26.1029 66.2973 26.1029 65.652L26.2789 65.212L26.3669 64.86C30.2389 49.7827 33.1722 34.9107 35.1669 20.244C35.1669 20.0093 35.1962 19.628 35.2549 19.1C35.3135 18.5133 35.3722 17.692 35.4309 16.636C35.6069 14.4653 35.7829 12.7347 35.9589 11.444C36.1935 10.1533 36.5455 9.18533 37.0149 8.54H40.0069C40.8282 8.54 41.5322 8.74533 42.1189 9.156C42.7055 9.508 42.9989 10.036 42.9989 10.74C42.9989 15.1987 43.6149 21.828 44.8469 30.628C46.0202 39.6627 46.6069 45.9987 46.6069 49.636C46.6069 49.988 46.7535 50.8973 47.0469 52.364C47.3402 53.7133 47.4869 54.5933 47.4869 55.004C47.4869 55.4147 47.7802 57.1747 48.3669 60.284C48.8949 63.1 49.1589 64.9187 49.1589 65.74V65.828C49.1589 67.1187 48.6895 67.94 47.7509 68.292ZM41.9429 51.396C41.7669 50.516 41.6789 49.4307 41.6789 48.14C41.6789 42.86 41.2095 36.1133 40.2709 27.9L39.3909 18.748C36.8682 32.5347 35.1375 42.948 34.1989 49.988C35.0789 50.5747 37.6602 51.044 41.9429 51.396ZM72.1118 68.996C70.8211 68.996 69.6478 67.588 68.5918 64.772C67.3598 61.7213 66.4504 58.5827 65.8638 55.356L65.2478 52.364C63.5464 43.9747 62.4611 39.1933 61.9918 38.02H60.9358C60.9358 39.7213 60.9064 41.276 60.8478 42.684V47.524C60.8478 55.3853 61.4051 61.516 62.5198 65.916L61.5518 68.292H59.0878L57.9438 66.972L58.0318 61.076C58.0318 55.796 57.7678 47.788 57.2398 37.052C56.7704 25.612 56.5358 17.604 56.5358 13.028C56.5358 10.212 57.5038 8.804 59.4398 8.804C62.6078 8.804 65.1891 9.62533 67.1838 11.268C69.2371 12.9107 70.2638 15.1987 70.2638 18.132V24.292C70.2638 25.172 70.1171 26.1987 69.8238 27.372C69.5304 28.4867 69.2078 29.396 68.8558 30.1L67.1838 33.268L65.7758 35.908L66.2158 38.02L67.4478 44.268C68.2691 48.7853 69.0611 52.452 69.8238 55.268C70.5864 58.084 71.5251 60.636 72.6398 62.924L73.1678 63.98C73.7544 65.1533 74.0478 66.092 74.0478 66.796C74.0478 67.3827 73.8718 67.8813 73.5198 68.292C73.1678 68.7613 72.6984 68.996 72.1118 68.996ZM61.2878 33.708C62.5784 33.0627 63.6638 31.3027 64.5438 28.428C65.4824 25.4947 65.9518 22.796 65.9518 20.332C65.9518 18.4547 65.7171 16.6947 65.2478 15.052C64.9544 14.1133 64.4558 13.4093 63.7518 12.94C63.1064 12.412 62.2851 12.148 61.2878 12.148L61.1118 12.588L60.9358 13.38L61.1118 23.764C61.2291 26.8147 61.2878 30.1293 61.2878 33.708ZM118.129 72.076C116.31 72.076 115.401 70.2573 115.401 66.62V60.988V55.356C115.401 52.4227 115.196 48.58 114.785 43.828C114.316 38.4893 114.081 34.8227 114.081 32.828L114.257 27.372C114.374 25.788 114.433 23.9987 114.433 22.004C114.198 22.7667 113.23 26.8147 111.529 34.148C109.828 41.2467 108.068 47.8173 106.249 53.86C104.489 59.668 103.052 62.572 101.937 62.572C100.822 62.572 99.9129 62.2493 99.2089 61.604C98.5635 60.9 98.2409 59.9613 98.2409 58.788C98.2409 56.2067 97.1849 50.7213 95.0729 42.332C93.0195 33.9427 91.1422 27.0787 89.4409 21.74L88.9129 31.684C88.4435 40.0733 88.1209 47.0547 87.9449 52.628C87.8275 58.0253 87.7689 61.7213 87.7689 63.716C87.7689 64.1853 87.7982 64.6253 87.8569 65.036V66.268C87.8569 67.2653 87.6515 67.9987 87.2409 68.468C86.8302 68.996 86.0675 69.26 84.9529 69.26C84.3662 69.26 83.8089 69.0253 83.2809 68.556C82.7529 68.1453 82.4889 67.676 82.4889 67.148C82.4889 61.164 82.9289 52.188 83.8089 40.22C84.6889 28.252 85.1289 19.276 85.1289 13.292C84.7769 12.764 84.6009 12.2067 84.6009 11.62C84.6009 10.916 84.9235 10.388 85.5689 10.036C86.2729 9.62533 87.0942 9.42 88.0329 9.42C88.7955 9.42 90.2035 12.1773 92.2569 17.692C94.3102 23.2067 96.3635 29.4547 98.4169 36.436C100.47 43.4173 101.79 48.4627 102.377 51.572C102.846 49.988 103.228 48.5213 103.521 47.172L104.049 45.06C105.926 36.8467 107.804 29.4253 109.681 22.796C110.796 18.748 111.881 15.58 112.937 13.292C113.993 10.828 114.961 9.596 115.841 9.596C116.662 9.596 117.396 9.83066 118.041 10.3C118.745 10.7107 119.097 11.268 119.097 11.972C119.097 16.196 119.273 22.532 119.625 30.98C120.036 38.8413 120.241 44.9427 120.241 49.284L120.153 53.948L119.977 58.612C119.977 59.316 120.065 60.372 120.241 61.78L120.505 64.86C120.564 65.388 120.593 65.7987 120.593 66.092C120.652 66.3853 120.681 66.5613 120.681 66.62C120.974 67.3827 121.121 67.94 121.121 68.292C121.121 69.2893 120.828 70.1693 120.241 70.932C119.654 71.6947 118.95 72.076 118.129 72.076ZM142.289 69.172C140.764 69.172 139.356 68.6733 138.065 67.676C136.774 66.7373 135.718 65.4467 134.897 63.804C133.196 60.2253 132.14 56.324 131.729 52.1C131.201 48.1107 130.937 44.268 130.937 40.572C130.937 39.868 130.966 39.2813 131.025 38.812V37.228C131.025 36.9347 130.996 36.788 130.937 36.788V35.204L131.025 29.044C131.084 27.1667 131.318 24.1747 131.729 20.068C132.022 17.252 132.697 14.524 133.753 11.884C134.164 10.7107 134.692 9.83066 135.337 9.24399C135.982 8.59866 136.716 8.276 137.537 8.276C139.884 8.276 141.996 8.716 143.873 9.596C145.75 10.4173 147.334 11.5907 148.625 13.116C149.798 14.5827 150.796 16.4013 151.617 18.572C152.438 20.684 153.025 22.9427 153.377 25.348C153.729 27.812 153.905 30.4227 153.905 33.18V33.884C153.905 35.7027 153.934 37.3453 153.993 38.812L154.081 43.828C154.081 60.724 150.15 69.172 142.289 69.172ZM141.937 65.476C142.993 65.476 143.961 65.0653 144.841 64.244C145.721 63.364 146.396 62.1907 146.865 60.724C147.98 57.732 148.654 54.5053 148.889 51.044C149.182 48.052 149.329 45.4707 149.329 43.3C149.329 40.66 149.124 37.1987 148.713 32.916C148.361 28.3987 148.185 25.0253 148.185 22.796V21.212C148.068 18.9827 147.305 17.0467 145.897 15.404C144.548 13.7613 142.876 12.94 140.881 12.94C138.886 12.94 137.566 14.084 136.921 16.372C136.334 18.1907 136.041 20.5373 136.041 23.412C136.041 24.5267 136.07 25.4653 136.129 26.228V28.604L135.953 32.652C135.836 33.884 135.777 35.2333 135.777 36.7C135.777 39.868 135.865 43.0067 136.041 46.116C136.276 50.516 136.862 54.7987 137.801 58.964C138.74 63.3053 140.118 65.476 141.937 65.476ZM187.728 67.764C187.024 67.764 186.496 67.588 186.144 67.236C185.792 66.8253 185.528 66.1507 185.352 65.212L184.824 63.54V63.364V63.1C184.824 61.164 182.8 54.564 178.752 43.3C174.763 32.036 171.624 23.7053 169.336 18.308V62.572L169.688 63.188C169.747 63.3053 169.864 63.5107 170.04 63.804C170.216 64.0973 170.304 64.3907 170.304 64.684C170.304 65.4467 170.04 66.092 169.512 66.62C168.984 67.148 168.339 67.412 167.576 67.412C165.699 67.412 164.76 65.6227 164.76 62.044L164.672 46.996C164.613 42.4787 164.584 37.4333 164.584 31.86C164.584 29.9827 164.672 27.2547 164.848 23.676C165.024 19.98 165.112 17.252 165.112 15.492C165.112 12.7347 166.168 10.564 168.28 8.98V9.508C168.632 9.39066 168.867 9.332 168.984 9.332C170.333 9.332 172.035 11.6787 174.088 16.372C175.731 20.1267 177.197 24.0867 178.488 28.252C179.837 32.4173 181.597 38.3427 183.768 46.028L184.648 49.196C185.997 53.948 187.024 57.3507 187.728 59.404C188.901 46.7907 189.488 31.8893 189.488 14.7V13.556C189.429 13.204 189.4 12.8227 189.4 12.412C189.4 10.652 190.104 9.772 191.512 9.772C192.333 9.772 192.949 10.0947 193.36 10.74C193.829 11.3853 194.064 12.2067 194.064 13.204V19.804C193.947 28.8387 193.595 38.636 193.008 49.196C192.421 59.756 191.717 65.7107 190.896 67.06C189.195 67.5293 188.139 67.764 187.728 67.764ZM209.861 68.644C209.099 68.644 208.395 68.38 207.749 67.852C207.163 67.324 206.84 66.6787 206.781 65.916V63.628V61.868C206.723 61.34 206.693 60.724 206.693 60.02C206.693 58.788 206.605 56.9107 206.429 54.388L206.253 48.756C206.253 45.8813 206.341 41.5987 206.517 35.908C206.752 30.804 206.869 26.5213 206.869 23.06C206.869 22.2387 206.781 21.0067 206.605 19.364C206.429 17.6627 206.341 16.4307 206.341 15.668C206.341 11.5027 207.573 9.42 210.037 9.42C211.973 9.42 214.203 9.80133 216.725 10.564C219.307 11.3267 220.597 12.236 220.597 13.292C220.597 13.8787 220.333 14.436 219.805 14.964C219.336 15.4333 218.749 15.8147 218.045 16.108C215.581 15.228 213.352 14.6413 211.357 14.348C211.416 15.228 211.445 16.4893 211.445 18.132C211.445 20.4787 211.416 22.5907 211.357 24.468C211.181 27.284 211.093 29.396 211.093 30.804L211.357 32.212L212.765 32.124C213.235 32.0653 213.821 32.036 214.525 32.036C217.341 32.036 218.749 32.8573 218.749 34.5C218.749 35.1453 218.485 35.7027 217.957 36.172C217.429 36.5827 216.755 36.788 215.933 36.788C214.877 36.788 214.056 36.7293 213.469 36.612H211.269C211.387 38.1373 211.445 40.3667 211.445 43.3C211.445 46.2333 211.416 48.8733 211.357 51.22C211.181 54.7987 211.093 57.468 211.093 59.228C211.093 62.5133 211.152 64.156 211.269 64.156L214.173 64.068C215.171 64.0093 216.373 63.98 217.781 63.98C220.011 63.98 221.125 64.684 221.125 66.092C221.125 66.9133 220.744 67.5293 219.981 67.94C219.277 68.4093 218.397 68.644 217.341 68.644H209.861ZM238.037 68.732C237.04 68.732 236.218 68.0867 235.573 66.796C236.218 65.564 236.541 60.5773 236.541 51.836C236.541 49.7827 236.394 47.5533 236.101 45.148L235.837 42.596C235.661 41.012 235.573 39.8093 235.573 38.988V36.7C234.986 35.2333 233.901 32.5053 232.317 28.516C230.792 24.5267 229.56 21.1827 228.621 18.484C227.506 15.3747 226.949 13.2627 226.949 12.148V11.708L228.973 10.212C229.97 10.3293 231.026 11.62 232.141 14.084C233.08 16.2547 234.106 19.364 235.221 23.412C236.394 27.46 236.981 29.6013 236.981 29.836C237.216 29.1907 237.685 26.9907 238.389 23.236C239.093 19.4813 239.885 16.1667 240.765 13.292C241.762 10.4173 242.789 8.98 243.845 8.98C244.432 8.98 244.93 9.156 245.341 9.508C245.81 9.86 246.045 10.3 246.045 10.828C246.045 13.82 245.224 18.044 243.581 23.5C241.821 29.4253 240.941 33.708 240.941 36.348V62.836C240.941 66.7667 239.973 68.732 238.037 68.732ZM271.055 68.82C270.292 68.82 269.706 68.5267 269.295 67.94C268.943 67.412 268.767 66.7373 268.767 65.916C268.767 53.6547 268.532 43.3 268.063 34.852C266.655 34.6173 265.658 34.5 265.071 34.5C262.666 34.5 260.935 34.7053 259.879 35.116C259.879 38.4013 260.143 43.3587 260.671 49.988C261.14 57.028 261.375 62.0147 261.375 64.948C261.375 65.5347 261.199 66.092 260.847 66.62C260.495 67.0893 260.055 67.324 259.527 67.324C258.764 67.324 258.06 65.9747 257.415 63.276C256.476 59.2867 255.714 50.9267 255.127 38.196C254.716 29.572 254.511 20.3027 254.511 10.388C254.452 8.56933 254.423 5.988 254.423 2.644C254.423 1.588 254.922 1.06 255.919 1.06C256.506 1.06 257.092 1.20666 257.679 1.49999C258.324 1.79333 258.794 2.116 259.087 2.468C258.852 4.34533 258.735 6.54533 258.735 9.068C258.735 11.532 258.852 14.524 259.087 18.044C259.263 22.092 259.351 25.1427 259.351 27.196V28.78C259.292 29.2493 259.263 29.8067 259.263 30.452C259.263 31.0387 259.322 31.8013 259.439 32.74C259.791 32.74 260.378 32.7107 261.199 32.652C262.02 32.5933 262.842 32.5053 263.663 32.388C265.599 32.212 267.036 32.124 267.975 32.124C267.975 27.02 267.916 22.2973 267.799 17.956L267.623 3.26V0.883997C268.386 0.883997 269.06 1.03066 269.647 1.324C270.234 1.55866 270.674 1.88133 270.967 2.292C271.495 2.93733 271.818 4.052 271.935 5.636V7.66C271.935 12.7053 272.228 22.356 272.815 36.612C273.343 49.5187 273.607 59.1987 273.607 65.652C273.607 66.4733 273.343 67.2067 272.815 67.852C272.346 68.4973 271.759 68.82 271.055 68.82ZM295.086 69.172C293.561 69.172 292.153 68.6733 290.862 67.676C289.571 66.7373 288.515 65.4467 287.694 63.804C285.993 60.2253 284.937 56.324 284.526 52.1C283.998 48.1107 283.734 44.268 283.734 40.572C283.734 39.868 283.763 39.2813 283.822 38.812V37.228C283.822 36.9347 283.793 36.788 283.734 36.788V35.204L283.822 29.044C283.881 27.1667 284.115 24.1747 284.526 20.068C284.819 17.252 285.494 14.524 286.55 11.884C286.961 10.7107 287.489 9.83066 288.134 9.24399C288.779 8.59866 289.513 8.276 290.334 8.276C292.681 8.276 294.793 8.716 296.67 9.596C298.547 10.4173 300.131 11.5907 301.422 13.116C302.595 14.5827 303.593 16.4013 304.414 18.572C305.235 20.684 305.822 22.9427 306.174 25.348C306.526 27.812 306.702 30.4227 306.702 33.18V33.884C306.702 35.7027 306.731 37.3453 306.79 38.812L306.878 43.828C306.878 60.724 302.947 69.172 295.086 69.172ZM294.734 65.476C295.79 65.476 296.758 65.0653 297.638 64.244C298.518 63.364 299.193 62.1907 299.662 60.724C300.777 57.732 301.451 54.5053 301.686 51.044C301.979 48.052 302.126 45.4707 302.126 43.3C302.126 40.66 301.921 37.1987 301.51 32.916C301.158 28.3987 300.982 25.0253 300.982 22.796V21.212C300.865 18.9827 300.102 17.0467 298.694 15.404C297.345 13.7613 295.673 12.94 293.678 12.94C291.683 12.94 290.363 14.084 289.718 16.372C289.131 18.1907 288.838 20.5373 288.838 23.412C288.838 24.5267 288.867 25.4653 288.926 26.228V28.604L288.75 32.652C288.633 33.884 288.574 35.2333 288.574 36.7C288.574 39.868 288.662 43.0067 288.838 46.116C289.073 50.516 289.659 54.7987 290.598 58.964C291.537 63.3053 292.915 65.476 294.734 65.476ZM351.965 72.076C350.146 72.076 349.237 70.2573 349.237 66.62V60.988V55.356C349.237 52.4227 349.031 48.58 348.621 43.828C348.151 38.4893 347.917 34.8227 347.917 32.828L348.093 27.372C348.21 25.788 348.269 23.9987 348.269 22.004C348.034 22.7667 347.066 26.8147 345.365 34.148C343.663 41.2467 341.903 47.8173 340.085 53.86C338.325 59.668 336.887 62.572 335.773 62.572C334.658 62.572 333.749 62.2493 333.045 61.604C332.399 60.9 332.077 59.9613 332.077 58.788C332.077 56.2067 331.021 50.7213 328.909 42.332C326.855 33.9427 324.978 27.0787 323.277 21.74L322.749 31.684C322.279 40.0733 321.957 47.0547 321.781 52.628C321.663 58.0253 321.605 61.7213 321.605 63.716C321.605 64.1853 321.634 64.6253 321.693 65.036V66.268C321.693 67.2653 321.487 67.9987 321.077 68.468C320.666 68.996 319.903 69.26 318.789 69.26C318.202 69.26 317.645 69.0253 317.117 68.556C316.589 68.1453 316.325 67.676 316.325 67.148C316.325 61.164 316.765 52.188 317.645 40.22C318.525 28.252 318.965 19.276 318.965 13.292C318.613 12.764 318.437 12.2067 318.437 11.62C318.437 10.916 318.759 10.388 319.405 10.036C320.109 9.62533 320.93 9.42 321.869 9.42C322.631 9.42 324.039 12.1773 326.093 17.692C328.146 23.2067 330.199 29.4547 332.253 36.436C334.306 43.4173 335.626 48.4627 336.213 51.572C336.682 49.988 337.063 48.5213 337.357 47.172L337.885 45.06C339.762 36.8467 341.639 29.4253 343.517 22.796C344.631 18.748 345.717 15.58 346.773 13.292C347.829 10.828 348.797 9.596 349.677 9.596C350.498 9.596 351.231 9.83066 351.877 10.3C352.581 10.7107 352.933 11.268 352.933 11.972C352.933 16.196 353.109 22.532 353.461 30.98C353.871 38.8413 354.077 44.9427 354.077 49.284L353.989 53.948L353.813 58.612C353.813 59.316 353.901 60.372 354.077 61.78L354.341 64.86C354.399 65.388 354.429 65.7987 354.429 66.092C354.487 66.3853 354.517 66.5613 354.517 66.62C354.81 67.3827 354.957 67.94 354.957 68.292C354.957 69.2893 354.663 70.1693 354.077 70.932C353.49 71.6947 352.786 72.076 351.965 72.076ZM369.877 68.644C369.114 68.644 368.41 68.38 367.765 67.852C367.178 67.324 366.856 66.6787 366.797 65.916V63.628V61.868C366.738 61.34 366.709 60.724 366.709 60.02C366.709 58.788 366.621 56.9107 366.445 54.388L366.269 48.756C366.269 45.8813 366.357 41.5987 366.533 35.908C366.768 30.804 366.885 26.5213 366.885 23.06C366.885 22.2387 366.797 21.0067 366.621 19.364C366.445 17.6627 366.357 16.4307 366.357 15.668C366.357 11.5027 367.589 9.42 370.053 9.42C371.989 9.42 374.218 9.80133 376.741 10.564C379.322 11.3267 380.613 12.236 380.613 13.292C380.613 13.8787 380.349 14.436 379.821 14.964C379.352 15.4333 378.765 15.8147 378.061 16.108C375.597 15.228 373.368 14.6413 371.373 14.348C371.432 15.228 371.461 16.4893 371.461 18.132C371.461 20.4787 371.432 22.5907 371.373 24.468C371.197 27.284 371.109 29.396 371.109 30.804L371.373 32.212L372.781 32.124C373.25 32.0653 373.837 32.036 374.541 32.036C377.357 32.036 378.765 32.8573 378.765 34.5C378.765 35.1453 378.501 35.7027 377.973 36.172C377.445 36.5827 376.77 36.788 375.949 36.788C374.893 36.788 374.072 36.7293 373.485 36.612H371.285C371.402 38.1373 371.461 40.3667 371.461 43.3C371.461 46.2333 371.432 48.8733 371.373 51.22C371.197 54.7987 371.109 57.468 371.109 59.228C371.109 62.5133 371.168 64.156 371.285 64.156L374.189 64.068C375.186 64.0093 376.389 63.98 377.797 63.98C380.026 63.98 381.141 64.684 381.141 66.092C381.141 66.9133 380.76 67.5293 379.997 67.94C379.293 68.4093 378.413 68.644 377.357 68.644H369.877Z" fill="url(#paint0_linear_12_12)"/>
<defs>
<linearGradient id="paint0_linear_12_12" x1="-4" y1="-21.5" x2="380.254" y2="106.721" gradientUnits="userSpaceOnUse">
<stop offset="0.338668" stop-color="#3EB489"/>
<stop offset="0.525843" stop-color="#FFB6C1"/>
</linearGradient>
</defs>
</svg>
