<svg width="175" height="64" viewBox="0 0 175 64" fill="none" xmlns="http://www.w3.org/2000/svg">
<path d="M18.225 45.525C17.9217 45.525 17.6883 45.4083 17.525 45.175C17.385 44.965 17.315 44.6967 17.315 44.37C17.315 39.4933 17.2217 35.375 17.035 32.015C16.475 31.9217 16.0783 31.875 15.845 31.875C14.8883 31.875 14.2 31.9567 13.78 32.12C13.78 33.4267 13.885 35.3983 14.095 38.035C14.2817 40.835 14.375 42.8183 14.375 43.985C14.375 44.2183 14.305 44.44 14.165 44.65C14.025 44.8367 13.85 44.93 13.64 44.93C13.3367 44.93 13.0567 44.3933 12.8 43.32C12.4267 41.7333 12.1233 38.4083 11.89 33.345C11.7267 29.915 11.645 26.2283 11.645 22.285C11.6217 21.5617 11.61 20.535 11.61 19.205C11.61 18.785 11.8083 18.575 12.205 18.575C12.4383 18.575 12.6717 18.6333 12.905 18.75C13.1617 18.8667 13.3483 18.995 13.465 19.135C13.3717 19.8817 13.325 20.7567 13.325 21.76C13.325 22.74 13.3717 23.93 13.465 25.33C13.535 26.94 13.57 28.1533 13.57 28.97V29.6C13.5467 29.7867 13.535 30.0083 13.535 30.265C13.535 30.4983 13.5583 30.8017 13.605 31.175C13.745 31.175 13.9783 31.1633 14.305 31.14C14.6317 31.1167 14.9583 31.0817 15.285 31.035C16.055 30.965 16.6267 30.93 17 30.93C17 28.9 16.9767 27.0217 16.93 25.295L16.86 19.45V18.505C17.1633 18.505 17.4317 18.5633 17.665 18.68C17.8983 18.7733 18.0733 18.9017 18.19 19.065C18.4 19.3217 18.5283 19.765 18.575 20.395V21.2C18.575 23.2067 18.6917 27.045 18.925 32.715C19.135 37.8483 19.24 41.6983 19.24 44.265C19.24 44.5917 19.135 44.8833 18.925 45.14C18.7383 45.3967 18.505 45.525 18.225 45.525ZM30.5827 45.315C30.0461 45.315 29.6494 45.2333 29.3927 45.07C29.1361 44.9067 29.0077 44.6033 29.0077 44.16C29.0077 43.46 28.8911 42.27 28.6577 40.59L28.5177 39.855L25.0527 39.33C24.9127 39.8667 24.7144 40.9517 24.4577 42.585C24.3177 43.7283 24.0961 44.4867 23.7927 44.86C23.6294 45.07 23.3961 45.175 23.0927 45.175C22.8127 45.175 22.5561 45.0933 22.3227 44.93C22.0894 44.7433 21.9727 44.5217 21.9727 44.265L22.0427 44.09L22.0777 43.95C23.6177 37.9533 24.7844 32.0383 25.5777 26.205C25.5777 26.1117 25.5894 25.96 25.6127 25.75C25.6361 25.5167 25.6594 25.19 25.6827 24.77C25.7527 23.9067 25.8227 23.2183 25.8927 22.705C25.9861 22.1917 26.1261 21.8067 26.3127 21.55H27.5027C27.8294 21.55 28.1094 21.6317 28.3427 21.795C28.5761 21.935 28.6927 22.145 28.6927 22.425C28.6927 24.1983 28.9377 26.835 29.4277 30.335C29.8944 33.9283 30.1277 36.4483 30.1277 37.895C30.1277 38.035 30.1861 38.3967 30.3027 38.98C30.4194 39.5167 30.4777 39.8667 30.4777 40.03C30.4777 40.1933 30.5944 40.8933 30.8277 42.13C31.0377 43.25 31.1427 43.9733 31.1427 44.3V44.335C31.1427 44.8483 30.9561 45.175 30.5827 45.315ZM28.2727 38.595C28.2027 38.245 28.1677 37.8133 28.1677 37.3C28.1677 35.2 27.9811 32.5167 27.6077 29.25L27.2577 25.61C26.2544 31.0933 25.5661 35.235 25.1927 38.035C25.5427 38.2683 26.5694 38.455 28.2727 38.595ZM40.2717 45.595C39.7584 45.595 39.2917 45.035 38.8717 43.915C38.3817 42.7017 38.0201 41.4533 37.7867 40.17L37.5417 38.98C36.8651 35.6433 36.4334 33.7417 36.2467 33.275H35.8267C35.8267 33.9517 35.8151 34.57 35.7917 35.13V37.055C35.7917 40.1817 36.0134 42.62 36.4567 44.37L36.0717 45.315H35.0917L34.6367 44.79L34.6717 42.445C34.6717 40.345 34.5667 37.16 34.3567 32.89C34.1701 28.34 34.0767 25.155 34.0767 23.335C34.0767 22.215 34.4617 21.655 35.2317 21.655C36.4917 21.655 37.5184 21.9817 38.3117 22.635C39.1284 23.2883 39.5367 24.1983 39.5367 25.365V27.815C39.5367 28.165 39.4784 28.5733 39.3617 29.04C39.2451 29.4833 39.1167 29.845 38.9767 30.125L38.3117 31.385L37.7517 32.435L37.9267 33.275L38.4167 35.76C38.7434 37.5567 39.0584 39.015 39.3617 40.135C39.6651 41.255 40.0384 42.27 40.4817 43.18L40.6917 43.6C40.9251 44.0667 41.0417 44.44 41.0417 44.72C41.0417 44.9533 40.9717 45.1517 40.8317 45.315C40.6917 45.5017 40.5051 45.595 40.2717 45.595ZM35.9667 31.56C36.4801 31.3033 36.9117 30.6033 37.2617 29.46C37.6351 28.2933 37.8217 27.22 37.8217 26.24C37.8217 25.4933 37.7284 24.7933 37.5417 24.14C37.4251 23.7667 37.2267 23.4867 36.9467 23.3C36.6901 23.09 36.3634 22.985 35.9667 22.985L35.8967 23.16L35.8267 23.475L35.8967 27.605C35.9434 28.8183 35.9667 30.1367 35.9667 31.56ZM58.574 46.82C57.8507 46.82 57.489 46.0967 57.489 44.65V42.41V40.17C57.489 39.0033 57.4073 37.475 57.244 35.585C57.0573 33.4617 56.964 32.0033 56.964 31.21L57.034 29.04C57.0807 28.41 57.104 27.6983 57.104 26.905C57.0107 27.2083 56.6257 28.8183 55.949 31.735C55.2723 34.5583 54.5723 37.1717 53.849 39.575C53.149 41.885 52.5773 43.04 52.134 43.04C51.6907 43.04 51.329 42.9117 51.049 42.655C50.7923 42.375 50.664 42.0017 50.664 41.535C50.664 40.5083 50.244 38.3267 49.404 34.99C48.5873 31.6533 47.8407 28.9233 47.164 26.8L46.954 30.755C46.7673 34.0917 46.639 36.8683 46.569 39.085C46.5223 41.2317 46.499 42.7017 46.499 43.495C46.499 43.6817 46.5107 43.8567 46.534 44.02V44.51C46.534 44.9067 46.4523 45.1983 46.289 45.385C46.1257 45.595 45.8223 45.7 45.379 45.7C45.1457 45.7 44.924 45.6067 44.714 45.42C44.504 45.2567 44.399 45.07 44.399 44.86C44.399 42.48 44.574 38.91 44.924 34.15C45.274 29.39 45.449 25.82 45.449 23.44C45.309 23.23 45.239 23.0083 45.239 22.775C45.239 22.495 45.3673 22.285 45.624 22.145C45.904 21.9817 46.2307 21.9 46.604 21.9C46.9073 21.9 47.4673 22.9967 48.284 25.19C49.1007 27.3833 49.9173 29.8683 50.734 32.645C51.5507 35.4217 52.0757 37.4283 52.309 38.665C52.4957 38.035 52.6473 37.4517 52.764 36.915L52.974 36.075C53.7207 32.8083 54.4673 29.8567 55.214 27.22C55.6573 25.61 56.089 24.35 56.509 23.44C56.929 22.46 57.314 21.97 57.664 21.97C57.9907 21.97 58.2823 22.0633 58.539 22.25C58.819 22.4133 58.959 22.635 58.959 22.915C58.959 24.595 59.029 27.115 59.169 30.475C59.3323 33.6017 59.414 36.0283 59.414 37.755L59.379 39.61L59.309 41.465C59.309 41.745 59.344 42.165 59.414 42.725L59.519 43.95C59.5423 44.16 59.554 44.3233 59.554 44.44C59.5773 44.5567 59.589 44.6267 59.589 44.65C59.7057 44.9533 59.764 45.175 59.764 45.315C59.764 45.7117 59.6473 46.0617 59.414 46.365C59.1807 46.6683 58.9007 46.82 58.574 46.82ZM68.1831 45.665C67.5765 45.665 67.0165 45.4667 66.5031 45.07C65.9898 44.6967 65.5698 44.1833 65.2431 43.53C64.5665 42.1067 64.1465 40.555 63.9831 38.875C63.7731 37.2883 63.6681 35.76 63.6681 34.29C63.6681 34.01 63.6798 33.7767 63.7031 33.59V32.96C63.7031 32.8433 63.6915 32.785 63.6681 32.785V32.155L63.7031 29.705C63.7265 28.9583 63.8198 27.7683 63.9831 26.135C64.0998 25.015 64.3681 23.93 64.7881 22.88C64.9515 22.4133 65.1615 22.0633 65.4181 21.83C65.6748 21.5733 65.9665 21.445 66.2931 21.445C67.2265 21.445 68.0665 21.62 68.8131 21.97C69.5598 22.2967 70.1898 22.7633 70.7031 23.37C71.1698 23.9533 71.5665 24.6767 71.8931 25.54C72.2198 26.38 72.4531 27.2783 72.5931 28.235C72.7331 29.215 72.8031 30.2533 72.8031 31.35V31.63C72.8031 32.3533 72.8148 33.0067 72.8381 33.59L72.8731 35.585C72.8731 42.305 71.3098 45.665 68.1831 45.665ZM68.0431 44.195C68.4631 44.195 68.8481 44.0317 69.1981 43.705C69.5481 43.355 69.8165 42.8883 70.0031 42.305C70.4465 41.115 70.7148 39.8317 70.8081 38.455C70.9248 37.265 70.9831 36.2383 70.9831 35.375C70.9831 34.325 70.9015 32.9483 70.7381 31.245C70.5981 29.4483 70.5281 28.1067 70.5281 27.22V26.59C70.4815 25.7033 70.1781 24.9333 69.6181 24.28C69.0815 23.6267 68.4165 23.3 67.6231 23.3C66.8298 23.3 66.3048 23.755 66.0481 24.665C65.8148 25.3883 65.6981 26.3217 65.6981 27.465C65.6981 27.9083 65.7098 28.2817 65.7331 28.585V29.53L65.6631 31.14C65.6165 31.63 65.5931 32.1667 65.5931 32.75C65.5931 34.01 65.6281 35.2583 65.6981 36.495C65.7915 38.245 66.0248 39.9483 66.3981 41.605C66.7715 43.3317 67.3198 44.195 68.0431 44.195ZM86.2554 45.105C85.9754 45.105 85.7654 45.035 85.6254 44.895C85.4854 44.7317 85.3804 44.4633 85.3104 44.09L85.1004 43.425V43.355V43.25C85.1004 42.48 84.2954 39.855 82.6854 35.375C81.0988 30.895 79.8504 27.5817 78.9404 25.435V43.04L79.0804 43.285C79.1038 43.3317 79.1504 43.4133 79.2204 43.53C79.2904 43.6467 79.3254 43.7633 79.3254 43.88C79.3254 44.1833 79.2204 44.44 79.0104 44.65C78.8004 44.86 78.5438 44.965 78.2404 44.965C77.4938 44.965 77.1204 44.2533 77.1204 42.83L77.0854 36.845C77.0621 35.0483 77.0504 33.0417 77.0504 30.825C77.0504 30.0783 77.0854 28.9933 77.1554 27.57C77.2254 26.1 77.2604 25.015 77.2604 24.315C77.2604 23.2183 77.6804 22.355 78.5204 21.725V21.935C78.6604 21.8883 78.7538 21.865 78.8004 21.865C79.3371 21.865 80.0138 22.7983 80.8304 24.665C81.4838 26.1583 82.0671 27.7333 82.5804 29.39C83.1171 31.0467 83.8171 33.4033 84.6804 36.46L85.0304 37.72C85.5671 39.61 85.9754 40.9633 86.2554 41.78C86.7221 36.7633 86.9554 30.8367 86.9554 24V23.545C86.9321 23.405 86.9204 23.2533 86.9204 23.09C86.9204 22.39 87.2004 22.04 87.7604 22.04C88.0871 22.04 88.3321 22.1683 88.4954 22.425C88.6821 22.6817 88.7754 23.0083 88.7754 23.405V26.03C88.7288 29.6233 88.5888 33.52 88.3554 37.72C88.1221 41.92 87.8421 44.2883 87.5154 44.825C86.8388 45.0117 86.4188 45.105 86.2554 45.105ZM95.0585 45.455C94.7551 45.455 94.4751 45.35 94.2185 45.14C93.9851 44.93 93.8568 44.6733 93.8335 44.37V43.46V42.76C93.8101 42.55 93.7985 42.305 93.7985 42.025C93.7985 41.535 93.7635 40.7883 93.6935 39.785L93.6235 37.545C93.6235 36.4017 93.6585 34.6983 93.7285 32.435C93.8218 30.405 93.8685 28.7017 93.8685 27.325C93.8685 26.9983 93.8335 26.5083 93.7635 25.855C93.6935 25.1783 93.6585 24.6883 93.6585 24.385C93.6585 22.7283 94.1485 21.9 95.1285 21.9C95.8985 21.9 96.7851 22.0517 97.7885 22.355C98.8151 22.6583 99.3285 23.02 99.3285 23.44C99.3285 23.6733 99.2235 23.895 99.0135 24.105C98.8268 24.2917 98.5935 24.4433 98.3135 24.56C97.3335 24.21 96.4468 23.9767 95.6535 23.86C95.6768 24.21 95.6885 24.7117 95.6885 25.365C95.6885 26.2983 95.6768 27.1383 95.6535 27.885C95.5835 29.005 95.5485 29.845 95.5485 30.405L95.6535 30.965L96.2135 30.93C96.4001 30.9067 96.6335 30.895 96.9135 30.895C98.0335 30.895 98.5935 31.2217 98.5935 31.875C98.5935 32.1317 98.4885 32.3533 98.2785 32.54C98.0685 32.7033 97.8001 32.785 97.4735 32.785C97.0535 32.785 96.7268 32.7617 96.4935 32.715H95.6185C95.6651 33.3217 95.6885 34.2083 95.6885 35.375C95.6885 36.5417 95.6768 37.5917 95.6535 38.525C95.5835 39.9483 95.5485 41.01 95.5485 41.71C95.5485 43.0167 95.5718 43.67 95.6185 43.67L96.7735 43.635C97.1701 43.6117 97.6485 43.6 98.2085 43.6C99.0951 43.6 99.5385 43.88 99.5385 44.44C99.5385 44.7667 99.3868 45.0117 99.0835 45.175C98.8035 45.3617 98.4535 45.455 98.0335 45.455H95.0585ZM106.265 45.49C105.868 45.49 105.541 45.2333 105.285 44.72C105.541 44.23 105.67 42.2467 105.67 38.77C105.67 37.9533 105.611 37.0667 105.495 36.11L105.39 35.095C105.32 34.465 105.285 33.9867 105.285 33.66V32.75C105.051 32.1667 104.62 31.0817 103.99 29.495C103.383 27.9083 102.893 26.5783 102.52 25.505C102.076 24.2683 101.855 23.4283 101.855 22.985V22.81L102.66 22.215C103.056 22.2617 103.476 22.775 103.92 23.755C104.293 24.6183 104.701 25.855 105.145 27.465C105.611 29.075 105.845 29.9267 105.845 30.02C105.938 29.7633 106.125 28.8883 106.405 27.395C106.685 25.9017 107 24.5833 107.35 23.44C107.746 22.2967 108.155 21.725 108.575 21.725C108.808 21.725 109.006 21.795 109.17 21.935C109.356 22.075 109.45 22.25 109.45 22.46C109.45 23.65 109.123 25.33 108.47 27.5C107.77 29.8567 107.42 31.56 107.42 32.61V43.145C107.42 44.7083 107.035 45.49 106.265 45.49ZM119.397 45.525C119.094 45.525 118.86 45.4083 118.697 45.175C118.557 44.965 118.487 44.6967 118.487 44.37C118.487 39.4933 118.394 35.375 118.207 32.015C117.647 31.9217 117.25 31.875 117.017 31.875C116.06 31.875 115.372 31.9567 114.952 32.12C114.952 33.4267 115.057 35.3983 115.267 38.035C115.454 40.835 115.547 42.8183 115.547 43.985C115.547 44.2183 115.477 44.44 115.337 44.65C115.197 44.8367 115.022 44.93 114.812 44.93C114.509 44.93 114.229 44.3933 113.972 43.32C113.599 41.7333 113.295 38.4083 113.062 33.345C112.899 29.915 112.817 26.2283 112.817 22.285C112.794 21.5617 112.782 20.535 112.782 19.205C112.782 18.785 112.98 18.575 113.377 18.575C113.61 18.575 113.844 18.6333 114.077 18.75C114.334 18.8667 114.52 18.995 114.637 19.135C114.544 19.8817 114.497 20.7567 114.497 21.76C114.497 22.74 114.544 23.93 114.637 25.33C114.707 26.94 114.742 28.1533 114.742 28.97V29.6C114.719 29.7867 114.707 30.0083 114.707 30.265C114.707 30.4983 114.73 30.8017 114.777 31.175C114.917 31.175 115.15 31.1633 115.477 31.14C115.804 31.1167 116.13 31.0817 116.457 31.035C117.227 30.965 117.799 30.93 118.172 30.93C118.172 28.9 118.149 27.0217 118.102 25.295L118.032 19.45V18.505C118.335 18.505 118.604 18.5633 118.837 18.68C119.07 18.7733 119.245 18.9017 119.362 19.065C119.572 19.3217 119.7 19.765 119.747 20.395V21.2C119.747 23.2067 119.864 27.045 120.097 32.715C120.307 37.8483 120.412 41.6983 120.412 44.265C120.412 44.5917 120.307 44.8833 120.097 45.14C119.91 45.3967 119.677 45.525 119.397 45.525ZM128.955 45.665C128.348 45.665 127.788 45.4667 127.275 45.07C126.761 44.6967 126.341 44.1833 126.015 43.53C125.338 42.1067 124.918 40.555 124.755 38.875C124.545 37.2883 124.44 35.76 124.44 34.29C124.44 34.01 124.451 33.7767 124.475 33.59V32.96C124.475 32.8433 124.463 32.785 124.44 32.785V32.155L124.475 29.705C124.498 28.9583 124.591 27.7683 124.755 26.135C124.871 25.015 125.14 23.93 125.56 22.88C125.723 22.4133 125.933 22.0633 126.19 21.83C126.446 21.5733 126.738 21.445 127.065 21.445C127.998 21.445 128.838 21.62 129.585 21.97C130.331 22.2967 130.961 22.7633 131.475 23.37C131.941 23.9533 132.338 24.6767 132.665 25.54C132.991 26.38 133.225 27.2783 133.365 28.235C133.505 29.215 133.575 30.2533 133.575 31.35V31.63C133.575 32.3533 133.586 33.0067 133.61 33.59L133.645 35.585C133.645 42.305 132.081 45.665 128.955 45.665ZM128.815 44.195C129.235 44.195 129.62 44.0317 129.97 43.705C130.32 43.355 130.588 42.8883 130.775 42.305C131.218 41.115 131.486 39.8317 131.58 38.455C131.696 37.265 131.755 36.2383 131.755 35.375C131.755 34.325 131.673 32.9483 131.51 31.245C131.37 29.4483 131.3 28.1067 131.3 27.22V26.59C131.253 25.7033 130.95 24.9333 130.39 24.28C129.853 23.6267 129.188 23.3 128.395 23.3C127.601 23.3 127.076 23.755 126.82 24.665C126.586 25.3883 126.47 26.3217 126.47 27.465C126.47 27.9083 126.481 28.2817 126.505 28.585V29.53L126.435 31.14C126.388 31.63 126.365 32.1667 126.365 32.75C126.365 34.01 126.4 35.2583 126.47 36.495C126.563 38.245 126.796 39.9483 127.17 41.605C127.543 43.3317 128.091 44.195 128.815 44.195ZM151.577 46.82C150.854 46.82 150.492 46.0967 150.492 44.65V42.41V40.17C150.492 39.0033 150.41 37.475 150.247 35.585C150.06 33.4617 149.967 32.0033 149.967 31.21L150.037 29.04C150.084 28.41 150.107 27.6983 150.107 26.905C150.014 27.2083 149.629 28.8183 148.952 31.735C148.275 34.5583 147.575 37.1717 146.852 39.575C146.152 41.885 145.58 43.04 145.137 43.04C144.694 43.04 144.332 42.9117 144.052 42.655C143.795 42.375 143.667 42.0017 143.667 41.535C143.667 40.5083 143.247 38.3267 142.407 34.99C141.59 31.6533 140.844 28.9233 140.167 26.8L139.957 30.755C139.77 34.0917 139.642 36.8683 139.572 39.085C139.525 41.2317 139.502 42.7017 139.502 43.495C139.502 43.6817 139.514 43.8567 139.537 44.02V44.51C139.537 44.9067 139.455 45.1983 139.292 45.385C139.129 45.595 138.825 45.7 138.382 45.7C138.149 45.7 137.927 45.6067 137.717 45.42C137.507 45.2567 137.402 45.07 137.402 44.86C137.402 42.48 137.577 38.91 137.927 34.15C138.277 29.39 138.452 25.82 138.452 23.44C138.312 23.23 138.242 23.0083 138.242 22.775C138.242 22.495 138.37 22.285 138.627 22.145C138.907 21.9817 139.234 21.9 139.607 21.9C139.91 21.9 140.47 22.9967 141.287 25.19C142.104 27.3833 142.92 29.8683 143.737 32.645C144.554 35.4217 145.079 37.4283 145.312 38.665C145.499 38.035 145.65 37.4517 145.767 36.915L145.977 36.075C146.724 32.8083 147.47 29.8567 148.217 27.22C148.66 25.61 149.092 24.35 149.512 23.44C149.932 22.46 150.317 21.97 150.667 21.97C150.994 21.97 151.285 22.0633 151.542 22.25C151.822 22.4133 151.962 22.635 151.962 22.915C151.962 24.595 152.032 27.115 152.172 30.475C152.335 33.6017 152.417 36.0283 152.417 37.755L152.382 39.61L152.312 41.465C152.312 41.745 152.347 42.165 152.417 42.725L152.522 43.95C152.545 44.16 152.557 44.3233 152.557 44.44C152.58 44.5567 152.592 44.6267 152.592 44.65C152.709 44.9533 152.767 45.175 152.767 45.315C152.767 45.7117 152.65 46.0617 152.417 46.365C152.184 46.6683 151.904 46.82 151.577 46.82ZM158.701 45.455C158.398 45.455 158.118 45.35 157.861 45.14C157.628 44.93 157.499 44.6733 157.476 44.37V43.46V42.76C157.453 42.55 157.441 42.305 157.441 42.025C157.441 41.535 157.406 40.7883 157.336 39.785L157.266 37.545C157.266 36.4017 157.301 34.6983 157.371 32.435C157.464 30.405 157.511 28.7017 157.511 27.325C157.511 26.9983 157.476 26.5083 157.406 25.855C157.336 25.1783 157.301 24.6883 157.301 24.385C157.301 22.7283 157.791 21.9 158.771 21.9C159.541 21.9 160.428 22.0517 161.431 22.355C162.458 22.6583 162.971 23.02 162.971 23.44C162.971 23.6733 162.866 23.895 162.656 24.105C162.469 24.2917 162.236 24.4433 161.956 24.56C160.976 24.21 160.089 23.9767 159.296 23.86C159.319 24.21 159.331 24.7117 159.331 25.365C159.331 26.2983 159.319 27.1383 159.296 27.885C159.226 29.005 159.191 29.845 159.191 30.405L159.296 30.965L159.856 30.93C160.043 30.9067 160.276 30.895 160.556 30.895C161.676 30.895 162.236 31.2217 162.236 31.875C162.236 32.1317 162.131 32.3533 161.921 32.54C161.711 32.7033 161.443 32.785 161.116 32.785C160.696 32.785 160.369 32.7617 160.136 32.715H159.261C159.308 33.3217 159.331 34.2083 159.331 35.375C159.331 36.5417 159.319 37.5917 159.296 38.525C159.226 39.9483 159.191 41.01 159.191 41.71C159.191 43.0167 159.214 43.67 159.261 43.67L160.416 43.635C160.813 43.6117 161.291 43.6 161.851 43.6C162.738 43.6 163.181 43.88 163.181 44.44C163.181 44.7667 163.029 45.0117 162.726 45.175C162.446 45.3617 162.096 45.455 161.676 45.455H158.701Z" fill="url(#paint0_linear_122_2)"/>
<defs>
<linearGradient id="paint0_linear_122_2" x1="10" y1="10" x2="162.636" y2="61.0662" gradientUnits="userSpaceOnUse">
<stop offset="0.338668" stop-color="#3EB489"/>
<stop offset="0.525843" stop-color="#FFB6C1"/>
</linearGradient>
</defs>
</svg>
